<svg xmlns="http://www.w3.org/2000/svg" width="920" height="410" viewBox="0 0 920 410">
<desc>Generated from public benchmark 9cf47070c75bbf66f5e9919c32b5847b886a2f02190ea844c55273bb5ac4f751 and champions 813c9822d951a011706f8ecbcd35ea1531474be5a73039053f70270a9d7f05f2</desc>
<rect width="100%" height="100%" fill="#f8fafc"/>
<text x="40" y="34" font-family="system-ui" font-size="20" font-weight="700" fill="#0f172a">Frozen champion mean AU-PRO by category</text>
<line x1="40" y1="320" x2="890" y2="320" stroke="#94a3b8"/>
<rect x="58" y="236.83" width="82" height="83.17" rx="4" fill="#2563eb"/>
<text x="99.0" y="228.83" text-anchor="middle" font-family="system-ui" font-size="12" fill="#0f172a">0.308</text>
<text x="99.0" y="340" text-anchor="middle" font-family="system-ui" font-size="11" fill="#334155">can</text>
<text x="99.0" y="357" text-anchor="middle" font-family="system-ui" font-size="10" fill="#64748b">patchcore</text>
<rect x="166" y="138.16" width="82" height="181.84" rx="4" fill="#d97706"/>
<text x="207.0" y="130.16" text-anchor="middle" font-family="system-ui" font-size="12" fill="#0f172a">0.673</text>
<text x="207.0" y="340" text-anchor="middle" font-family="system-ui" font-size="11" fill="#334155">fabric</text>
<text x="207.0" y="357" text-anchor="middle" font-family="system-ui" font-size="10" fill="#64748b">dinomaly</text>
<rect x="274" y="123.69" width="82" height="196.31" rx="4" fill="#d97706"/>
<text x="315.0" y="115.69" text-anchor="middle" font-family="system-ui" font-size="12" fill="#0f172a">0.727</text>
<text x="315.0" y="340" text-anchor="middle" font-family="system-ui" font-size="11" fill="#334155">fruit_jelly</text>
<text x="315.0" y="357" text-anchor="middle" font-family="system-ui" font-size="10" fill="#64748b">dinomaly</text>
<rect x="382" y="137.28" width="82" height="182.72" rx="4" fill="#d97706"/>
<text x="423.0" y="129.28" text-anchor="middle" font-family="system-ui" font-size="12" fill="#0f172a">0.677</text>
<text x="423.0" y="340" text-anchor="middle" font-family="system-ui" font-size="11" fill="#334155">rice</text>
<text x="423.0" y="357" text-anchor="middle" font-family="system-ui" font-size="10" fill="#64748b">dinomaly</text>
<rect x="490" y="186.27" width="82" height="133.73" rx="4" fill="#d97706"/>
<text x="531.0" y="178.27" text-anchor="middle" font-family="system-ui" font-size="12" fill="#0f172a">0.495</text>
<text x="531.0" y="340" text-anchor="middle" font-family="system-ui" font-size="11" fill="#334155">sheet_metal</text>
<text x="531.0" y="357" text-anchor="middle" font-family="system-ui" font-size="10" fill="#64748b">dinomaly</text>
<rect x="598" y="70.47" width="82" height="249.53" rx="4" fill="#2563eb"/>
<text x="639.0" y="62.47" text-anchor="middle" font-family="system-ui" font-size="12" fill="#0f172a">0.924</text>
<text x="639.0" y="340" text-anchor="middle" font-family="system-ui" font-size="11" fill="#334155">vial</text>
<text x="639.0" y="357" text-anchor="middle" font-family="system-ui" font-size="10" fill="#64748b">patchcore</text>
<rect x="706" y="176.33" width="82" height="143.67" rx="4" fill="#2563eb"/>
<text x="747.0" y="168.33" text-anchor="middle" font-family="system-ui" font-size="12" fill="#0f172a">0.532</text>
<text x="747.0" y="340" text-anchor="middle" font-family="system-ui" font-size="11" fill="#334155">wallplugs</text>
<text x="747.0" y="357" text-anchor="middle" font-family="system-ui" font-size="10" fill="#64748b">patchcore</text>
<rect x="814" y="126.50" width="82" height="193.50" rx="4" fill="#2563eb"/>
<text x="855.0" y="118.50" text-anchor="middle" font-family="system-ui" font-size="12" fill="#0f172a">0.717</text>
<text x="855.0" y="340" text-anchor="middle" font-family="system-ui" font-size="11" fill="#334155">walnuts</text>
<text x="855.0" y="357" text-anchor="middle" font-family="system-ui" font-size="10" fill="#64748b">patchcore</text>
</svg>
